# xmcd CD database file
#
# Track frame offsets:
#	150
#	22602
#	47880
#	70335
#
# Disc length: 1275 seconds
#
# Revision: 0
# Processed by: cddbd v1.5PL3 Copyright (c) Steve Scherf et al.
# Submitted via: CDex 1.50Beta7
#
DISCID=2a04f904
DTITLE=AiM - 誰より・・・
DYEAR=2001
DGENRE=Pop
TTITLE0=誰より…
TTITLE1=きっと
TTITLE2=誰より…(Original Karaoke)
TTITLE3=きっと(Original Karaoke)
EXTD=YEAR: 2001
EXTT0=
EXTT1=
EXTT2=
EXTT3=
PLAYORDER=
